<svg width="1205" height="1205" viewBox="0 0 1205 1205" fill="none" xmlns="http://www.w3.org/2000/svg">
<g filter="url(#filter0_d_409_3640)">
<mask id="mask0_409_3640" style="mask-type:alpha" maskUnits="userSpaceOnUse" x="4" y="0" width="1197" height="1197">
<circle cx="602.033" cy="598.033" r="598.033" fill="#D9D9D9"/>
</mask>
<g mask="url(#mask0_409_3640)">
<path d="M929.883 1091.76C927.138 1093.73 924.001 1095.69 921.256 1097.65C918.118 1099.61 915.373 1101.57 912.236 1103.14C909.491 1104.71 907.138 1106.27 904.393 1107.84C904.001 1108.24 903.609 1108.24 903.216 1108.63C894.197 1114.12 884.785 1119.22 875.373 1123.92C872.628 1125.49 869.491 1127.06 866.746 1128.24C866.746 1128.24 866.354 1128.63 865.962 1128.63C862.824 1130.2 859.687 1131.76 856.55 1133.33C850.275 1136.47 843.609 1139.22 837.334 1141.96C834.197 1143.53 830.667 1144.71 827.53 1145.88C824.393 1147.06 820.864 1148.63 817.726 1149.8C814.589 1150.98 811.06 1152.55 807.922 1153.73C807.922 1153.73 807.922 1153.73 807.53 1153.73C804.393 1154.9 800.864 1156.08 797.726 1157.25C790.667 1159.61 783.216 1161.96 776.158 1164.31C773.805 1165.1 771.06 1165.88 768.707 1166.67C761.256 1169.02 753.805 1170.98 746.354 1172.55C743.609 1173.33 740.864 1173.73 737.726 1174.51C730.667 1176.08 723.216 1177.65 716.158 1179.22C714.589 1179.61 713.413 1179.61 711.844 1180C709.491 1180.39 706.746 1180.78 704.393 1181.18C700.864 1181.57 697.726 1182.35 694.197 1182.74C692.628 1183.14 691.06 1183.14 689.491 1183.53C687.53 1183.92 685.177 1184.31 682.824 1184.31C676.55 1185.1 669.883 1185.88 663.609 1186.67C661.648 1187.06 659.295 1187.06 657.334 1187.45H656.942C654.197 1187.84 651.452 1187.84 648.707 1188.24C645.962 1188.63 643.217 1188.63 640.471 1188.63C638.903 1188.63 636.942 1189.02 635.373 1189.02C632.236 1189.02 629.491 1189.41 626.746 1189.41C622.824 1189.41 619.295 1189.8 615.373 1189.8C611.452 1189.8 607.922 1189.8 604.001 1189.8C601.256 1189.8 598.511 1189.8 595.766 1189.8C430.275 1187.45 281.648 1117.25 175.373 1005.88C175.373 1005.88 175.373 1005.49 174.981 1005.49C163.216 994.902 173.413 938.431 220.864 902.745C280.471 857.647 423.217 829.412 423.217 829.412C423.217 829.412 478.511 820.392 683.609 863.137C803.609 888.235 894.981 924.706 945.962 1023.53C956.55 1043.92 967.138 1075.29 929.883 1091.76Z" fill="white"/>
<path d="M684.785 858.823C760.079 874.118 840.471 890.588 902.432 940.392C923.216 957.255 936.942 981.961 948.315 1005.88C953.805 1017.65 959.295 1029.8 963.609 1042.75C965.962 1051.37 969.491 1061.18 967.53 1071.37C967.138 1074.12 964.785 1077.65 962.824 1079.61C953.805 1088.63 944.001 1094.12 934.197 1101.18C876.55 1141.18 810.275 1169.41 741.648 1184.31C588.707 1217.65 423.216 1191.76 288.707 1111.37C244.001 1084.31 202.824 1051.37 167.53 1012.55C163.609 1007.84 163.609 1000 163.609 994.902C164.001 983.137 167.138 971.765 171.06 961.176C180.471 936.863 192.628 912.549 213.413 895.686C228.315 885.49 244.393 876.863 260.864 869.804C312.628 847.843 367.138 832.549 423.216 826.274C427.922 825.882 428.707 832.549 424.001 833.333C370.275 844.314 316.942 860.784 267.138 883.137C249.099 892.157 229.883 900 215.373 914.118C201.648 929.02 191.844 947.451 184.001 966.274C178.903 977.647 175.373 995.686 176.942 1004.71C201.648 1034.12 230.667 1060 262.04 1082.35C433.805 1202.35 694.589 1210.2 877.334 1110.2C893.805 1101.18 909.883 1090.98 925.177 1080.39C932.628 1075.29 940.471 1070.98 946.354 1065.1C946.746 1064.71 946.354 1065.1 946.354 1065.49C946.354 1065.88 945.962 1066.27 945.962 1066.27C946.354 1061.57 944.785 1055.29 942.824 1049.02C935.765 1026.27 924.393 1002.35 912.236 981.569C893.02 950.588 860.471 930.98 827.53 915.294C804.785 904.706 780.864 896.471 756.55 888.627C732.236 880.784 707.53 874.118 682.824 868.235C676.55 866.667 678.511 857.647 684.785 858.823Z" fill="black"/>
<path d="M1060.08 1334.9H68.3152C68.3152 1334.9 84.3936 1173.33 145.57 1044.31C167.923 997.253 175.374 928.234 219.688 898.038C265.178 867.057 362.041 842.352 395.766 838.43C414.59 836.077 410.276 834.508 423.609 830.979C427.923 842.744 471.452 958.038 575.766 1000.39C665.57 1036.86 718.903 1012.55 727.139 972.155C732.237 946.273 716.158 903.92 707.923 890.195C703.217 886.273 700.08 880.391 698.511 874.508L695.374 861.567C702.433 859.999 709.1 858.038 716.158 856.077C719.688 856.861 723.609 856.469 726.747 858.43C759.688 876.469 858.903 901.959 910.668 956.469C931.06 977.646 962.825 1052.94 967.923 1101.96C982.433 1236.47 1060.08 1334.9 1060.08 1334.9Z" fill="white"/>
<path d="M1065.57 1337.25C771.454 1338.04 358.513 1341.57 68.7088 1340.39C65.1794 1340.39 62.4343 1337.25 62.8264 1333.73C66.3558 1305.88 71.0617 1278.82 76.5519 1251.37C91.0617 1176.47 113.023 1102.75 145.964 1034.12C159.297 1001.96 165.964 968.235 182.042 936.863C191.454 918.039 205.572 900 224.395 889.412C254.591 871.373 287.924 860 321.258 849.804C341.258 843.922 361.65 838.431 382.042 834.51C392.238 832.157 402.434 832.549 411.846 828.627C416.944 826.667 426.748 820.784 429.885 828.235C458.513 902.353 513.807 972.549 591.062 998.824C631.062 1013.33 700.473 1025.49 720.866 976.471C727.14 958.039 721.258 938.039 715.768 919.608C712.63 910.196 708.709 900.392 704.003 892.549L705.179 893.725C698.121 887.843 694.199 878.431 693.022 869.804L691.062 861.961C690.277 858.824 692.238 855.686 695.375 854.902C702.434 853.726 709.493 851.373 716.552 849.412C720.473 849.412 726.748 850.196 731.846 852.941C774.983 872.941 824.003 887.451 865.179 912.549C888.317 926.275 911.846 942.353 926.748 965.49C954.199 1011.37 971.846 1063.53 976.944 1116.47C987.924 1192.16 1018.51 1264.71 1062.43 1327.06L1064 1329.02L1064.79 1329.8L1065.18 1330.2C1065.18 1330.2 1065.18 1329.8 1065.57 1330.98C1065.96 1333.33 1065.96 1336.08 1065.57 1337.25ZM1054.98 1332.16C1054.2 1333.33 1054.2 1336.08 1054.98 1337.25C1055.77 1338.04 1055.38 1337.65 1055.38 1337.65L1054.98 1337.25L1054.2 1336.08L1052.63 1334.12C1027.92 1296.47 1007.53 1256.08 992.63 1214.12C980.866 1183.14 972.238 1150.98 967.532 1118.04C965.964 1106.27 964.003 1090.59 961.258 1079.22C952.238 1041.57 937.728 1003.92 916.944 971.373C910.277 960.784 900.474 952.549 890.67 944.706C859.689 921.176 823.219 906.667 787.14 892.549L750.277 878.824C738.121 874.118 723.611 869.02 716.16 861.569H719.297C712.238 863.922 705.179 865.882 698.121 867.451L702.434 860.392L704.395 868.235C705.964 875.294 707.532 881.569 713.023 886.275C713.415 886.667 713.807 887.059 714.199 887.451C724.787 906.667 731.062 926.667 734.199 948.235C740.866 985.49 717.336 1014.9 681.258 1021.96C631.454 1031.76 571.846 1010.2 530.67 982.353C478.905 945.882 441.65 891.765 418.905 833.333L425.964 836.863C422.434 838.039 420.081 839.216 416.552 840.784C413.022 842.745 408.709 843.922 404.787 844.706C405.179 847.059 404.003 840 405.572 849.412C398.121 850.196 392.238 850.588 385.179 852.157C365.179 855.294 345.179 860 325.572 865.49C299.297 872.549 273.415 881.177 249.101 892.549C236.944 898.431 225.179 904.706 216.16 912.941C206.748 921.176 199.297 932.157 193.022 943.922C174.591 979.608 165.572 1022.35 146.748 1058.43C107.532 1145.88 85.5715 1241.18 74.9833 1336.47L69.1009 1330.2C353.807 1329.02 765.571 1330.59 1054.98 1332.16Z" fill="black"/>
<path d="M741.65 1078.43C727.925 1082.35 680.081 1032.55 670.277 1023.92C661.258 1034.12 597.728 1105.88 566.356 1101.18C531.846 1096.08 443.611 1036.86 398.905 943.921C374.199 892.941 373.415 861.961 376.16 845.098C377.336 837.255 379.689 832.157 380.866 829.412C384.787 820.392 413.023 785.49 420.081 785.882V786.274C423.611 823.921 435.768 860.392 456.16 892.157C481.258 930.98 520.866 977.647 576.16 1000C665.964 1036.47 712.63 1000.39 720.474 960C725.572 934.118 716.552 903.529 708.317 889.804C703.611 885.882 700.474 880 698.905 874.117L695.768 861.176C702.826 859.608 709.493 857.647 716.552 855.686C718.513 854.902 720.866 854.51 722.826 853.725C724.003 855.294 725.572 856.863 726.748 858.431C743.219 877.255 760.474 903.137 769.885 947.059C785.572 1017.25 756.944 1073.73 741.65 1078.43Z" fill="black"/>
<path d="M669.101 1021.57C669.101 1021.57 697.728 1038.04 696.944 1051.76C696.16 1065.49 704.395 1109.02 704.395 1109.02" stroke="black" stroke-width="3" stroke-miterlimit="10" stroke-linecap="round" stroke-linejoin="round"/>
<path d="M668.709 1073.73C673.907 1073.73 678.12 1069.51 678.12 1064.31C678.12 1059.12 673.907 1054.9 668.709 1054.9C663.511 1054.9 659.297 1059.12 659.297 1064.31C659.297 1069.51 663.511 1073.73 668.709 1073.73Z" fill="black"/>
<path d="M671.845 1110.59C677.043 1110.59 681.256 1106.37 681.256 1101.18C681.256 1095.98 677.043 1091.76 671.845 1091.76C666.647 1091.76 662.433 1095.98 662.433 1101.18C662.433 1106.37 666.647 1110.59 671.845 1110.59Z" fill="black"/>
<path d="M262.433 1334.9L244.786 1189.41" stroke="#544D4D" stroke-width="3" stroke-miterlimit="10" stroke-linecap="round" stroke-linejoin="round"/>
<path d="M947.532 1140C947.532 1140 935.768 1168.63 939.297 1197.25C942.826 1225.88 953.022 1267.84 938.513 1334.9" stroke="#544D4D" stroke-width="3" stroke-miterlimit="10" stroke-linecap="round" stroke-linejoin="round"/>
<path d="M420.08 785.882C420.08 785.882 546.747 746.667 723.217 853.333C723.217 853.333 771.845 984.314 741.649 1004.31C711.453 1024.31 616.551 1026.27 550.276 1004.31C483.609 982.745 398.119 874.902 420.08 785.882Z" fill="black"/>
<path d="M721.644 963.137C713.409 1003.53 660.075 1027.84 570.271 991.372C476.938 953.725 436.546 863.921 426.35 837.255C481.644 733.725 443.213 661.961 443.213 661.961C570.664 650.98 682.036 800 682.036 800L699.291 873.725C700.86 880 703.997 885.49 708.703 889.412C716.938 903.921 726.742 937.255 721.644 963.137Z" fill="white"/>
<path d="M424.391 838.431C431.842 827.059 436.548 813.726 439.685 800.784C445.567 773.726 447.528 746.275 447.92 718.824V708.627C446.744 698.431 443.214 687.843 439.293 678.431C434.195 665.882 452.626 658.039 458.508 670.588C459.293 672.157 459.293 674.902 459.293 676.471C460.469 729.804 462.822 798.431 429.097 842.745C426.744 845.098 422.038 841.569 424.391 838.431Z" fill="black"/>
<path d="M686.35 799.216C692.233 802.745 694.194 807.451 694.978 812.157C697.331 821.569 696.546 831.765 698.899 841.569C700.86 850.981 706.743 860 708.311 869.804C710.272 880 716.154 901.569 718.507 912.157C719.292 914.51 717.723 917.255 714.978 917.647C713.409 918.04 712.233 917.647 711.056 916.863C705.958 912.549 703.605 908.236 700.468 902.745C695.37 893.334 691.841 884.706 688.703 874.118C685.958 864.706 687.135 854.51 684.782 844.706C682.821 835.294 677.331 826.275 675.37 816.471C674.194 811.765 673.801 806.667 677.331 800.785C679.684 798.432 683.605 797.647 686.35 799.216Z" fill="black"/>
<path d="M714.587 902.745C639.685 898.823 578.508 875.294 518.901 769.02C569.097 813.333 628.312 830.196 690.665 838.039L698.901 874.117C700.469 880.392 709.881 898.823 714.587 902.745Z" fill="black"/>
<path d="M711.451 888.235C724.785 913.333 732.628 944.706 724.392 972.549C718.118 992.157 700.079 1006.67 680.471 1012.16C634.981 1024.31 582.432 1005.1 542.039 983.529C492.236 955.686 455.373 909.019 431.843 858.039C430.275 854.117 435.765 850.98 438.118 854.902C446.353 871.372 455.765 887.451 466.353 901.961C476.941 916.863 489.098 930.588 502.824 942.745C542.824 978.823 596.941 1001.18 651.059 1001.18C706.745 999.608 727.922 970.196 714.981 916.078C713.02 907.451 709.883 898.431 705.569 890.98C703.216 887.843 709.098 884.314 711.451 888.235Z" fill="black"/>
<path d="M863.214 417.255C870.273 450.196 864.783 472.157 861.645 563.137C858.508 652.549 832.626 778.824 800.861 810.588C776.547 834.51 698.508 853.333 629.096 835.686C593.802 826.667 563.998 806.275 539.685 791.765C509.096 773.333 482.43 716.471 460.469 680C443.214 651.373 444.783 685.883 422.43 661.177C391.449 627.451 354.194 559.608 372.626 439.608C402.43 245.098 556.547 222.353 670.665 243.922C785.567 265.49 844.391 330.588 863.214 417.255Z" fill="white"/>
<path d="M442.039 695.686C433.02 680.784 421.255 667.451 410.667 653.333C394.981 631.765 383.216 607.059 375.373 581.569C341.255 472.549 362.039 329.804 465.177 265.49C558.902 205.882 740.863 227.451 816.941 309.02C845.569 338.431 864 376.863 871.843 416.863C872.236 419.216 873.412 423.529 873.804 425.882C874.196 427.843 875.373 430.196 874.981 432.549C874.196 441.177 872.628 449.804 871.843 458.431C865.961 510.588 867.53 563.922 860.863 616.078C854.981 670.98 847.138 725.882 830.667 778.824C825.569 794.902 815.765 809.412 802.824 820C773.804 844.314 735.765 852.549 699.294 854.118C626.353 857.647 552.236 831.765 509.883 770.196C508.314 767.843 511.451 765.098 513.412 767.451C548.706 805.49 596.549 829.804 647.53 835.294C704 841.961 789.098 836.863 813.804 776.471C842.432 690.98 857.334 600.392 858.902 510.588C858.902 488.627 857.726 466.667 857.726 444.314C857.726 441.569 858.118 435.294 858.118 432.549C858.118 432.157 858.118 432.549 858.118 432.549C858.118 432.941 858.118 432.941 858.118 432.549C854.981 424.706 853.804 416.078 851.451 408.235C842.824 375.686 827.138 344.706 804.785 320C730.667 236.863 565.569 216.078 473.02 278.431C399.686 327.059 380.079 420.392 374.981 502.745C370.667 564.314 388.706 624.706 435.373 667.059L453.804 686.275C461.647 694.902 448.314 705.098 442.039 695.686Z" fill="black"/>
<path d="M488.315 570.98C488.315 570.98 476.158 512.157 418.904 519.215C369.492 525.49 352.237 643.921 464.394 676.863" fill="white"/>
<path d="M459.293 625.491C450.273 620.393 443.999 611.765 443.606 601.177C443.999 593.334 445.175 584.314 443.214 576.471C442.038 569.02 434.195 567.059 428.312 567.451C422.038 568.628 418.116 576.471 416.94 582.746C416.94 583.138 416.548 584.314 416.548 584.706C416.155 586.667 413.018 586.667 412.234 584.706C407.136 569.412 418.508 552.549 434.979 554.51C458.116 556.079 461.253 580.393 456.94 598.824C454.587 606.667 457.724 613.726 462.038 620.393L462.822 621.569C464.783 623.922 461.646 627.059 459.293 625.491Z" fill="black"/>
<path d="M773.022 529.412C778.904 557.255 789.885 583.137 803.61 607.451C815.767 637.255 784.394 665.49 756.551 664.313C753.414 664.313 753.022 660 755.767 659.215C773.414 653.725 789.492 641.961 792.237 623.921C793.414 618.431 791.845 613.725 789.1 609.019C776.159 584.706 768.316 556.862 770.277 529.412C770.277 527.451 773.022 527.451 773.022 529.412Z" fill="black"/>
<path d="M486.353 571.373C477.334 548.235 457.726 526.275 431.451 526.667C429.098 526.275 425.177 527.059 422.824 527.059C416.157 527.451 410.667 529.804 405.569 534.51C380.471 559.608 384.785 603.922 405.177 631.765C412.236 641.569 421.255 650.196 431.451 657.255C441.647 664.314 453.02 669.804 465.177 674.51C467.922 675.294 466.745 679.608 464 679.216C437.726 673.725 412.628 660.784 395.373 639.216C368.706 607.059 363.216 553.333 394.981 521.961C402.039 515.686 411.843 510.98 421.647 510.98C424.785 510.98 429.49 510.196 432.628 510.98C449.098 511.765 464.785 520 474.981 532.941C484 543.922 489.098 557.255 490.667 570.588C490.667 572.941 487.138 573.725 486.353 571.373Z" fill="black"/>
<path d="M743.216 703.529C718.118 727.451 670.667 708.235 658.118 679.216C656.549 675.686 660.471 672.549 663.608 674.117C670.275 677.647 676.157 681.176 682.432 683.921C700.471 692.157 719.294 698.823 739.294 696.863C743.216 696.078 745.961 700.784 743.216 703.529Z" fill="black"/>
<path d="M684.391 487.843C693.018 489.02 699.685 480 696.547 471.373C694.979 466.667 692.234 462.353 687.92 459.608C674.587 451.373 624.783 450.589 598.508 469.412C574.979 486.667 645.175 482.353 684.391 487.843Z" fill="black"/>
<path d="M793.018 492.157C785.959 492.157 781.645 483.138 785.175 475.687C787.135 471.765 789.881 468.236 793.802 466.275C805.959 460.393 838.508 463.922 853.018 483.922C865.959 501.569 825.567 491.765 793.018 492.157Z" fill="black"/>
<path d="M669.881 538.432C649.881 529.804 627.136 532.157 606.351 536.863C603.998 537.647 602.43 534.51 604.391 532.941C622.43 518.04 656.547 516.079 671.057 536.471C672.234 537.255 671.449 538.824 669.881 538.432Z" fill="black"/>
<path d="M823.998 546.667C814.586 540 800.861 541.177 789.881 542.353C785.959 542.746 782.037 543.53 777.724 544.706C776.547 545.099 775.371 543.138 776.155 542.353L776.939 541.569C786.743 531.373 802.037 529.02 815.371 534.118C820.077 536.079 824.783 538.824 827.135 544.314C828.312 546.275 825.567 548.236 823.998 546.667Z" fill="black"/>
<path d="M893.021 323.922C920.864 223.138 807.923 160 777.726 205.491C755.766 238.432 671.06 212.942 542.432 210.589C413.805 207.844 379.295 276.079 377.726 349.412C377.726 349.412 321.256 379.216 324.785 484.314C328.315 593.334 440.472 681.177 454.197 736.471C454.197 736.471 455.766 743.53 440.864 667.843C355.374 626.667 373.413 525.098 419.295 519.216C454.197 514.902 472.628 535.294 481.256 551.765C484.785 556.471 518.119 597.255 518.903 463.922C519.295 372.942 607.923 343.138 708.707 380C761.256 399.216 816.55 413.334 854.589 385.883C860.864 403.922 867.53 423.922 862.432 448.236C877.726 434.118 890.668 413.334 894.197 387.843C896.55 372.549 892.628 359.216 884.001 347.451C887.53 340.785 890.668 332.549 893.021 323.922Z" fill="black"/>
<path d="M795.766 620C795.766 620 800.472 646.667 831.452 660C839.296 663.138 847.531 658.04 847.531 649.412C847.139 649.412 797.727 623.138 795.766 620Z" fill="black"/>
<path d="M553.413 620.001C553.413 620.001 567.923 652.942 611.452 660.785C654.982 669.02 694.59 637.648 713.021 585.099C713.021 585.099 698.119 633.726 638.511 642.746C579.688 652.55 553.413 620.001 553.413 620.001Z" fill="black"/>
<path d="M721.65 546.667C720.474 602.746 675.376 647.844 620.866 647.844C566.356 647.844 522.827 602.746 522.827 546.667C523.219 490.197 568.317 443.922 623.611 443.922C678.905 443.922 723.219 490.197 721.65 546.667Z" stroke="black" stroke-width="3" stroke-miterlimit="10" stroke-linecap="round" stroke-linejoin="round"/>
<path d="M775.374 533.726C781.649 483.138 814.59 443.53 853.413 443.53C895.374 443.53 927.531 489.804 925.178 546.275C922.825 602.353 887.531 647.451 846.354 647.451C831.06 647.451 817.335 641.569 805.962 630.981" stroke="black" stroke-width="3" stroke-miterlimit="10" stroke-linecap="round" stroke-linejoin="round"/>
<path d="M524.001 535.687H468.315" stroke="black" stroke-width="3" stroke-miterlimit="10" stroke-linecap="round" stroke-linejoin="round"/>
<path d="M722.041 535.687C722.041 535.687 768.707 517.648 774.59 535.687" stroke="black" stroke-width="3" stroke-miterlimit="10" stroke-linecap="round" stroke-linejoin="round"/>
<path d="M1134.2 330.588C1372.24 789.02 953.804 1306.27 454.98 1180C231.059 1124.31 51.0589 930.196 13.804 702.353C-28.5489 475.686 73.804 232.157 265.177 103.922C527.53 -76.4704 891.059 -16.4704 1078.9 241.569C1080.08 242.745 1079.69 244.706 1078.12 245.883C1076.94 247.059 1074.98 246.667 1073.8 245.098C1047.92 211.765 1018.51 181.569 986.353 154.51C933.412 109.412 871.451 74.1179 805.961 50.1963C472.628 -70.588 106.745 130.196 33.804 478.824C-48.5489 869.412 283.608 1229.02 679.686 1175.29C985.177 1136.86 1212.24 854.902 1187.14 548.235C1181.65 474.118 1162.04 400.785 1129.49 333.334C1128.71 332.157 1129.49 330.588 1130.67 329.804C1131.84 329.02 1133.41 329.412 1134.2 330.588Z" fill="black"/>
</g>
</g>
<defs>
<filter id="filter0_d_409_3640" x="0" y="0" width="1208" height="1208" filterUnits="userSpaceOnUse" color-interpolation-filters="sRGB">
<feFlood flood-opacity="0" result="BackgroundImageFix"/>
<feColorMatrix in="SourceAlpha" type="matrix" values="0 0 0 0 0 0 0 0 0 0 0 0 0 0 0 0 0 0 127 0" result="hardAlpha"/>
<feOffset dy="4"/>
<feGaussianBlur stdDeviation="2"/>
<feComposite in2="hardAlpha" operator="out"/>
<feColorMatrix type="matrix" values="0 0 0 0 0 0 0 0 0 0 0 0 0 0 0 0 0 0 0.25 0"/>
<feBlend mode="normal" in2="BackgroundImageFix" result="effect1_dropShadow_409_3640"/>
<feBlend mode="normal" in="SourceGraphic" in2="effect1_dropShadow_409_3640" result="shape"/>
</filter>
</defs>
</svg>
